Predators 2010 TS READNFO XViD - IMAGiNE
**********************************************************************************

Ripper ...........:IMAGiNE                                      IMDB Rating.......:7.6/10                            
Video Codec.......:XViD                                         Release Date......:07/09/10
Audio Codec.......:Layer 3                                      Theatre Date......:07/10/10
Audio Bitrate.....:128                                          Runtime...........:1h 41mn
Subtitles.........:NIL                                          Language..........:ENGLISH
Resolution........:720 x 304

                                                                                   URL..........:http://www.imdb.com/title/tt1424381/


DETAILS:

Video
Format                           : MPEG-4 Visual
Format profile                   : Streaming Video@L1
Format settings, BVOP            : Yes
Format settings, QPel            : No
Format settings, GMC             : No warppoints
Format settings, Matrix          : Default
Muxing mode                      : Packed bitstream
Codec ID                         : XVID
Codec ID/Hint                    : XviD
Duration                         : 1h 41mn
Bit rate                         : 1 797 Kbps
Width                            : 720 pixels
Height                           : 304 pixels
Display aspect ratio             : 2.35
Frame rate                       : 25.000 fps
Resolution                       : 24 bits
Colorimetry                      : 4:2:0
Scan type                        : Progressive
Bits/(Pixel*Frame)               : 0.328
Stream size                      : 1.27 GiB (93%)
Writing library                  : XviD 50

Audio
Format                           : MPEG Audio
Format version                   : Version 1
Format profile                   : Layer 3
Codec ID                         : 55
Codec ID/Hint                    : MP3
Duration                         : 1h 41mn
Bit rate mode                    : Constant
Bit rate                         : 128 Kbps
Channel(s)                       : 2 channels
Sampling rate                    : 44.1 KHz
Resolution                       : 16 bits
Stream size                      : 92.6 MiB (7%)
Alignment                        : Split accross interleaves
Interleave, duration             : 40 ms (1.00 video frame)
Interleave, preload duration     : 500 ms



NOTES:

IMAGiNE bringing you another release..... Predators 2010

This one goes out to our very good friend that wants to see this one...
You know who you are...

Sources used were the the xvid from RelizLab... Thanks Mate...  And our own line audio
Work done... We used a few filters on this one to help it out as
it's not the best video or audio sources on this one. Used a
smoother filter,sharpness filter,white balance filter,rgb eq,contrast
and brightness levels... Also increased contrast as the source looked washed
out. Another thing... Towards the neding, there are a bit of autofocus issues in the video...
Nothing we can do about this sorry...
Now onto the audio... This audio is not the best as we had to do some chopping
on this one. Our line had some bad areas that had to be removed, so we used
some cam audio that we we're given by a friend and cut in the 3 places that
needed it to bring you a full release...

Enjoy


SCREENS
 
http://imagine.takagari.com/PREDATORS%20CAM/vlcsnap-151085.png
 
http://imagine.takagari.com/PREDATORS%20CAM/vlcsnap-153367.png
 
http://imagine.takagari.com/PREDATORS%20CAM/vlcsnap-154433.png
 
http://imagine.takagari.com/PREDATORS%20CAM/vlcsnap-156060.png


GREETS:

FLAWL3SS,ViSiON,FUSiON,Rx,SecretMyth,BirdFlu,ELEKTRI4KA and Autotron
And to all the other p2p grps past and present


Looking for these,syncers,cammers,silver supplier.....Have anything to offer????......
Contact us imaginegroup@hushmail.com
